# xmcd
#
# Track frame offsets:
#	150
#	31668
#	65060
#	92305
#	119388
#	143843
#	167003
#	194705
#	219490
#	250278
#
# Disc length: 3673 seconds
#
# Revision: 1
# Processed by: cddbd v1.5.2PL0 Copyright (c) Steve Scherf et al.
# Submitted via: EZCDAudioConverter 8.0.2.1
#
DISCID=8c0e570a
DTITLE=Various Artist - Sơn Ca Nhạc Tuyển. Anh Tiền Tuyến, Em hậu Phương
DYEAR=1996
DGENRE=Contemporary Pop
TTITLE0=Sơn Ca, Hoàng Long - Anh Tiền Tuyến, Em hậu Phương
TTITLE1=Phương Dung - Kể chuyện trong đêm
TTITLE2=Giao Linh - Tình chỉ đẹp khi còn dang dở
TTITLE3=Thanh Tuyền - Giờ này anh ở đâu
TTITLE4=Sơn Ca, Duy Quang - Nếu một mai anh biệt kinh kỳ
TTITLE5=Phương Dung - Sắc hoa màu nhớ
TTITLE6=Thanh Tuyền - Biết trả lời sao
TTITLE7=Sơn Ca, Bùi Thiện - Khúc ca ngày mùa
TTITLE8=Mai Lệ Huyền - Tôi với người yêu
TTITLE9=Giao Linh - Phút cuối
EXTD=
EXTT0=
EXTT1=
EXTT2=
EXTT3=
EXTT4=
EXTT5=
EXTT6=
EXTT7=
EXTT8=
EXTT9=
PLAYORDER=
